<?xml version="1.0" encoding="utf-8"?>
<!-- Generator: Adobe Illustrator 27.5.0, SVG Export Plug-In . SVG Version: 6.00 Build 0)  -->
<svg version="1.1" xmlns="http://www.w3.org/2000/svg" xmlns:xlink="http://www.w3.org/1999/xlink" x="0px" y="0px"
	 viewBox="0 0 500 500" style="enable-background:new 0 0 500 500;" xml:space="preserve">
<g id="BACKGROUND">
	<rect x="0" style="fill:#FFFFFF;" width="499.999" height="500"/>
</g>
<g id="OBJECTS">
	<path style="fill:#1D3244;" d="M220.328,185.056"/>
	<g>
		<g>
			<g>
				<circle style="fill:#1D3244;" cx="203.46" cy="207.177" r="7.214"/>
				<path style="fill:#1D3244;" d="M180.653,199.963c3.984,0,7.214,3.23,7.214,7.215c0,3.984-3.23,7.214-7.214,7.214
					s-7.214-3.23-7.214-7.214C173.439,203.193,176.669,199.963,180.653,199.963z"/>
				<circle style="fill:#1D3244;" cx="157.846" cy="207.177" r="7.214"/>
			</g>
			<g>
				<path style="fill:#D91277;" d="M342.153,199.963c3.984,0,7.215,3.23,7.215,7.215c0,3.984-3.23,7.214-7.215,7.214
					s-7.214-3.23-7.214-7.214C334.939,203.193,338.169,199.963,342.153,199.963z"/>
				<path style="fill:#D91277;" d="M319.346,199.963c3.984,0,7.214,3.23,7.214,7.215c0,3.984-3.23,7.214-7.214,7.214
					c-3.984,0-7.214-3.23-7.214-7.214C312.132,203.193,315.362,199.963,319.346,199.963z"/>
				<path style="fill:#D91277;" d="M296.539,199.963c3.984,0,7.214,3.23,7.214,7.215c0,3.984-3.23,7.214-7.214,7.214
					c-3.984,0-7.215-3.23-7.215-7.214C289.325,203.193,292.555,199.963,296.539,199.963z"/>
			</g>
		</g>
		<path style="fill:#D91277;" d="M249.999,185.211c-3.582,0-6.486,2.904-6.486,6.486v38.953c0,8.202-6.674,14.876-14.876,14.876
			h-54.855l-10.526,11.36l-10.525-11.36h-16.177c-8.202,0-14.876-6.674-14.876-14.876v-47.513c0-8.203,6.674-14.876,14.876-14.876
			h93.681c1.728-4.761,4.254-9.141,7.425-12.971H136.556c-15.355,0-27.847,12.492-27.847,27.848v47.513
			c0,15.356,12.492,27.848,27.847,27.848h10.512l16.19,17.475l16.19-17.475h49.19c15.355,0,27.847-12.492,27.847-27.848v-38.953
			C256.485,188.114,253.582,185.211,249.999,185.211z"/>
		<path style="fill:#1D3244;" d="M363.444,155.289h-92.082c-15.356,0-27.847,12.492-27.847,27.848v22.225
			c0,3.582,2.904,6.486,6.486,6.486c3.582,0,6.486-2.903,6.486-6.486v-22.225c0-8.203,6.674-14.876,14.876-14.876h92.082
			c8.202,0,14.876,6.674,14.876,14.876v47.513c0,8.202-6.674,14.876-14.876,14.876h-16.178l-10.525,11.36l-10.525-11.36h-56.465
			c-1.727,4.761-4.253,9.14-7.421,12.971h58.22l16.19,17.475l16.19-17.475h10.512c15.356,0,27.848-12.492,27.848-27.848v-47.513
			C391.291,167.781,378.799,155.289,363.444,155.289z"/>
	</g>
</g>
<g id="TEXTS">
	<g>
		
			<text transform="matrix(1 0 0 1 159.5995 345.1046)" style="fill:#1D3244; font-family:'Lato-Semibold'; font-size:13px; letter-spacing:1;">your tagline goes here</text>
		<g>
			<text transform="matrix(1 0 0 1 133.1909 326.4825)"><tspan x="0" y="0" style="fill:#1D3244; font-family:'Outfit-Black'; font-size:41.422px;">let&apos;s</tspan><tspan x="113.371" y="0" style="fill:#D91277; font-family:'Outfit-Black'; font-size:41.422px;"> talk</tspan></text>
		</g>
	</g>
</g>
</svg>
